<svg width="25" height="25" viewBox="0 0 25 25" fill="none" xmlns="http://www.w3.org/2000/svg">
<g id="face_24px">
<path id="icon/action/face_24px" fill-rule="evenodd" clip-rule="evenodd" d="M12.626 2.40912C7.10598 2.40912 2.62598 6.88912 2.62598 12.4091C2.62598 17.9291 7.10598 22.4091 12.626 22.4091C18.146 22.4091 22.626 17.9291 22.626 12.4091C22.626 6.88912 18.146 2.40912 12.626 2.40912ZM8.37598 13.4091C8.37598 12.7191 8.93598 12.1591 9.62598 12.1591C10.316 12.1591 10.876 12.7191 10.876 13.4091C10.876 14.0991 10.316 14.6591 9.62598 14.6591C8.93598 14.6591 8.37598 14.0991 8.37598 13.4091ZM14.376 13.4091C14.376 12.7191 14.936 12.1591 15.626 12.1591C16.316 12.1591 16.876 12.7191 16.876 13.4091C16.876 14.0991 16.316 14.6591 15.626 14.6591C14.936 14.6591 14.376 14.0991 14.376 13.4091ZM4.62598 12.4091C4.62598 16.8191 8.21598 20.4091 12.626 20.4091C17.036 20.4091 20.626 16.8191 20.626 12.4091C20.626 11.6191 20.506 10.8591 20.296 10.1491C19.576 10.3191 18.826 10.4091 18.046 10.4091C14.676 10.4091 11.696 8.73912 9.88598 6.17912C8.90598 8.56912 7.03598 10.4991 4.67598 11.5491C4.64598 11.8291 4.62598 12.1191 4.62598 12.4091Z" fill="#C4C4C4"/>
</g>
</svg>
